<svg width="215" height="218" viewBox="0 0 215 218" fill="none" xmlns="http://www.w3.org/2000/svg">
<g clip-path="url(#clip0_5_488)">
<path d="M116.2 16.9218C115.759 15.2225 115.08 13.6239 114.21 12.1496L116.236 9.11812L113.423 6.32347L110.611 3.52883L107.56 5.54192C106.076 4.67156 104.467 4.0025 102.757 3.56436L102.036 0H94.0803L93.3593 3.56436C91.649 4.0025 90.0401 4.67748 88.5563 5.54192L85.5053 3.52883L82.6926 6.32347L79.88 9.11812L81.906 12.1496C81.0301 13.6239 80.3567 15.2225 79.9157 16.9218L76.3284 17.6382V25.5426L79.9157 26.259C80.3567 27.9583 81.036 29.5569 81.906 31.0312L79.88 34.0627L82.6926 36.8573L85.5053 39.652L88.5563 37.6389C90.0401 38.5092 91.649 39.1783 93.3593 39.6165L94.0803 43.1808H102.036L102.757 39.6165C104.467 39.1783 106.076 38.5033 107.56 37.6389L110.611 39.652L113.423 36.8573L116.236 34.0627L114.21 31.0312C115.086 29.5569 115.759 27.9583 116.2 26.259L119.787 25.5426V17.6382L116.2 16.9218ZM98.055 35.4482C90.3559 35.4482 84.1109 29.249 84.1109 21.5934C84.1109 13.9377 90.3559 7.73856 98.055 7.73856C105.754 7.73856 111.999 13.9436 111.999 21.5934C111.999 29.2431 105.754 35.4482 98.055 35.4482Z" fill="#9EB0D3"/>
<path d="M88.2047 70.9141H30.4023C27.5122 70.9141 25.1643 68.5813 25.1643 65.7097V26.2235C25.1643 23.3519 27.5122 21.019 30.4023 21.019H88.2047C91.0948 21.019 93.4427 23.3519 93.4427 26.2235V65.7097C93.4427 68.5813 91.0948 70.9141 88.2047 70.9141ZM30.4023 21.3802C27.7148 21.3802 25.5278 23.5532 25.5278 26.2235V65.7097C25.5278 68.38 27.7148 70.5529 30.4023 70.5529H88.2047C90.8922 70.5529 93.0792 68.38 93.0792 65.7097V26.2235C93.0792 23.5532 90.8922 21.3802 88.2047 21.3802H30.4023Z" fill="#9EB0D3"/>
<path d="M41.7066 47.5919H41.1702V111.223H41.7066V47.5919Z" fill="#9EB0D3"/>
<path d="M169.343 178.774H165.702V178.17H169.343V178.774ZM162.061 178.774H158.42V178.17H162.061V178.774ZM154.779 178.774H151.138V178.17H154.779V178.774ZM147.497 178.774H143.856V178.17H147.497V178.774ZM140.221 178.774H136.58V178.17H140.221V178.774ZM132.939 178.774H129.298V178.17H132.939V178.774ZM125.657 178.774H122.016V178.17H125.657V178.774ZM118.375 178.774H114.734V178.17H118.375V178.774ZM111.093 178.774H107.452V178.17H111.093V178.774ZM103.811 178.774H100.17V178.17H103.811V178.774ZM96.5295 178.774H92.8885V178.17H96.5295V178.774ZM89.2475 178.774H85.6066V178.17H89.2475V178.774ZM81.9656 178.774H78.3247V178.17H81.9656V178.774ZM74.6837 178.774H71.0428V178.17H74.6837V178.774ZM67.4018 178.774H63.7609V178.17H67.4018V178.774ZM173.025 178.686L172.93 178.088C174.08 177.91 175.171 177.436 176.082 176.714L176.458 177.188C175.463 177.975 174.271 178.49 173.019 178.686H173.025ZM60.0961 178.07C58.9519 177.531 57.9568 176.702 57.2238 175.666L57.7184 175.317C58.3918 176.264 59.3035 177.028 60.3523 177.519L60.0901 178.064L60.0961 178.07ZM178.716 174.203L178.156 173.978C178.484 173.173 178.651 172.327 178.651 171.45V170.544H179.258V171.45C179.258 172.404 179.08 173.333 178.722 174.203H178.716ZM55.9069 172.173C55.8831 171.93 55.8711 171.687 55.8711 171.444V168.525H56.479V171.444C56.479 171.669 56.4909 171.894 56.5147 172.113L55.9128 172.173H55.9069ZM179.252 166.921H178.645V163.303H179.252V166.921ZM56.479 164.914H55.8711V161.296H56.479V164.914ZM179.252 159.686H178.645V156.068H179.252V159.686ZM56.479 157.678H55.8711V154.061H56.479V157.678ZM179.252 152.45H178.645V148.833H179.252V152.45ZM56.479 150.443H55.8711V146.825H56.479V150.443ZM179.252 145.215H178.645V141.597H179.252V145.215ZM56.479 143.208H55.8711V139.59H56.479V143.208ZM179.252 137.98H178.645V134.362H179.252V137.98ZM56.479 135.972H55.8711V132.355H56.479V135.972ZM179.252 130.744H178.645V127.127H179.252V130.744ZM56.479 128.737H55.8711V125.12H56.479V128.737ZM179.252 123.509H178.645V119.891H179.252V123.509ZM56.479 121.502H55.8711V117.884H56.479V121.502ZM179.252 116.28H178.645V112.662H179.252V116.28ZM56.479 114.267H55.8711V110.649H56.479V114.267ZM179.252 109.044H178.645V105.427H179.252V109.044ZM56.479 107.031H55.8711V103.414H56.479V107.031ZM179.252 101.809H178.645V98.1915H179.252V101.809ZM56.479 99.796H55.8711V96.1784H56.479V99.796ZM179.252 94.5738H178.645V90.9562H179.252V94.5738ZM56.479 92.5608H55.8711V88.9431H56.479V92.5608ZM179.252 87.3386H178.645V83.7209H179.252V87.3386ZM56.479 85.3314H55.8711V81.7137H56.479V85.3314ZM179.252 80.1033H178.645V76.4856H179.252V80.1033ZM56.479 78.0961H55.8711V74.4785H56.479V78.0961ZM179.252 72.868H178.645V69.2503H179.252V72.868ZM56.479 70.8608H55.8711V67.2432H56.479V70.8608ZM179.252 65.6327H178.645V62.0151H179.252V65.6327ZM56.479 63.6255H55.8711V60.0079H56.479V63.6255ZM179.252 58.3974H178.645V54.7798H179.252V58.3974ZM56.479 56.3902H55.8711V52.7726H56.479V56.3902ZM179.252 51.1621H178.645V47.5445H179.252V51.1621ZM56.479 49.155H55.8711V45.5373H56.479V49.155ZM179.252 43.9268H178.645V40.3092H179.252V43.9268ZM56.479 41.9197H55.8711V38.302H56.479V41.9197ZM179.252 36.6916H178.645V33.0739H179.252V36.6916ZM56.479 34.6844H55.8711V31.0667H56.479V34.6844ZM179.252 29.4622H178.645V25.8445C178.645 25.3946 178.597 24.9505 178.514 24.5124L179.109 24.3939C179.205 24.8676 179.252 25.3531 179.252 25.8445V29.4622ZM56.479 27.4491H55.8711V25.8386C55.8711 25.134 55.9724 24.4413 56.1691 23.7722L56.7531 23.944C56.5743 24.5597 56.479 25.1933 56.479 25.8386V27.4491ZM177 21.4394C176.237 20.5631 175.254 19.8941 174.158 19.5033L174.36 18.9349C175.552 19.3553 176.625 20.0836 177.459 21.0427L177 21.4394ZM58.5348 21.0131L58.1117 20.5809C59.0234 19.6987 60.1557 19.0652 61.3832 18.7514L61.5382 19.3375C60.4119 19.6276 59.375 20.2079 58.5348 21.019V21.0131ZM170.66 19.1185H167.019V18.5145H170.66V19.1185ZM163.384 19.1185H159.743V18.5145H163.384V19.1185ZM156.102 19.1185H152.461V18.5145H156.102V19.1185ZM148.82 19.1185H145.179V18.5145H148.82V19.1185ZM141.538 19.1185H137.897V18.5145H141.538V19.1185ZM134.256 19.1185H130.615V18.5145H134.256V19.1185ZM126.974 19.1185H123.333V18.5145H126.974V19.1185ZM119.692 19.1185H116.051V18.5145H119.692V19.1185ZM112.41 19.1185H108.769V18.5145H112.41V19.1185ZM105.128 19.1185H101.487V18.5145H105.128V19.1185ZM97.8464 19.1185H94.2054V18.5145H97.8464V19.1185ZM90.5645 19.1185H86.9235V18.5145H90.5645V19.1185ZM83.2826 19.1185H79.6416V18.5145H83.2826V19.1185ZM76.0007 19.1185H72.3597V18.5145H76.0007V19.1185ZM68.7247 19.1185H65.0838V18.5145H68.7247V19.1185Z" fill="#7A93C3"/>
<path d="M55.4778 30.7352H164.111C168.014 30.7352 171.184 33.8851 171.184 37.7632V183.369C171.184 187.247 168.014 190.397 164.111 190.397H55.4778C51.5747 190.397 48.4045 187.247 48.4045 183.369V37.7632C48.4045 33.8851 51.5747 30.7352 55.4778 30.7352Z" fill="#EDF0F7"/>
<g opacity="0.85">
<path d="M151.18 145.955V190.391H81.7571V146.458C81.7571 144.149 83.6401 142.278 85.9641 142.278H147.473C149.517 142.278 151.174 143.924 151.174 145.955H151.18Z" fill="#617EB8"/>
</g>
<path d="M15.767 130.152C15.767 130.152 18.5916 131.526 17.8944 135.262C17.1972 138.998 16.8873 139.507 17.6679 140.964C18.4485 142.42 19.3722 148.655 18.669 149.839C17.9659 151.017 9.95695 144.647 8.84858 139.306C7.7402 133.959 9.55174 131.585 10.1953 130.697C10.8389 129.809 13.2702 128.897 15.767 130.152Z" fill="#002D7C"/>
<path d="M29.9435 125.593H20.8977V132.106V133.48L22.2802 132.106H29.9435V125.593Z" fill="#9EB0D3"/>
<path d="M72.1154 131.189C73.6171 131.692 75.22 131.976 76.8945 132C81.9597 132.065 86.4826 129.714 89.3667 126.026C91.363 123.468 92.5667 120.265 92.6144 116.783C92.6144 116.44 92.6144 116.091 92.5965 115.753C92.5131 114.202 92.1973 112.716 91.6907 111.318C89.5515 105.463 83.9381 101.253 77.2997 101.164C73.7243 101.117 70.4111 102.277 67.7653 104.267C64.0648 107.044 61.6454 111.425 61.5858 116.387C61.4964 123.243 65.924 129.111 72.1273 131.195L72.1154 131.189ZM65.4532 116.428C65.5009 112.733 67.2886 109.465 70.0297 107.387C72.026 105.871 74.5288 104.983 77.2401 105.019C82.2159 105.084 86.423 108.24 88.0319 112.633C88.4133 113.681 88.6457 114.794 88.7112 115.954C88.7232 116.209 88.7291 116.47 88.7291 116.73C88.6934 119.341 87.7876 121.739 86.2919 123.657C84.1347 126.422 80.7381 128.187 76.9422 128.14C75.6848 128.122 74.4811 127.915 73.3608 127.53C68.7128 125.967 65.3936 121.567 65.4592 116.428H65.4532Z" fill="#9EB0D3"/>
<path d="M86.2919 123.657L89.3608 126.019C86.4826 129.708 81.9537 132.059 76.8886 131.994C75.2141 131.97 73.6111 131.692 72.1094 131.182L73.3549 127.529C74.4811 127.908 75.6848 128.121 76.9362 128.133C80.7321 128.181 84.1228 126.416 86.2859 123.651L86.2919 123.657Z" fill="#1F489A"/>
<path d="M88.7112 115.954L92.5906 115.747C92.6084 116.09 92.6144 116.434 92.6084 116.783C92.5608 120.27 91.357 123.468 89.3608 126.025L86.2919 123.663C87.7876 121.745 88.6934 119.347 88.7291 116.736C88.7291 116.475 88.7291 116.215 88.7112 115.96V115.954Z" fill="#385DA5"/>
<path d="M88.7112 115.954C88.6457 114.794 88.4133 113.68 88.0319 112.638L91.6848 111.312C92.1973 112.709 92.5071 114.196 92.5906 115.747L88.7112 115.954Z" fill="#385DA5"/>
<path d="M67.7534 104.26C70.4052 102.271 73.7124 101.11 77.2878 101.158C83.9262 101.241 89.5395 105.456 91.6788 111.312L88.0319 112.638C86.4289 108.245 82.2219 105.083 77.2401 105.018C74.5348 104.983 72.032 105.871 70.0297 107.387L67.7534 104.26Z" fill="#7A93C3"/>
<path d="M71.5076 137.24C70.5124 135.931 68.9452 135.078 67.1694 135.055C64.7143 135.025 62.6108 136.588 61.8659 138.779C61.6871 139.312 61.5858 139.88 61.5739 140.466C61.5679 141.153 61.6871 141.816 61.9076 142.426C62.2652 143.403 62.8968 144.25 63.7132 144.877C64.5236 145.499 65.5069 145.908 66.5854 146.002C66.7284 146.014 66.8774 146.026 67.0204 146.026C67.1098 146.026 67.2052 146.026 67.2946 146.026C67.3243 146.026 67.3601 146.026 67.3899 146.026C67.9441 145.996 68.4744 145.884 68.975 145.706C71.0726 144.948 72.5802 142.965 72.61 140.62C72.6279 139.353 72.2107 138.187 71.5016 137.251L71.5076 137.24ZM68.5102 144.404C68.1348 144.54 67.7355 144.623 67.3243 144.647C67.235 144.647 67.1396 144.652 67.0443 144.647C66.651 144.647 66.2756 144.581 65.9121 144.475C65.4175 144.327 64.9586 144.096 64.5594 143.788C64.4164 143.676 64.2793 143.551 64.1482 143.421C63.3974 142.663 62.9385 141.627 62.9564 140.478C62.9564 140.182 62.9981 139.892 63.0637 139.614C63.0934 139.478 63.1292 139.341 63.1769 139.211C63.737 137.565 65.3102 136.393 67.1515 136.417C68.4744 136.434 69.6424 137.068 70.3873 138.033C70.9295 138.738 71.2454 139.626 71.2335 140.579C71.2096 142.337 70.0774 143.824 68.5042 144.392L68.5102 144.404Z" fill="#7A93C3"/>
<path d="M189.788 120.247C189.788 120.247 189.007 118.885 190.247 115.244C191.445 111.721 195.598 112.034 196.921 114.296C198.238 116.558 197.797 117.955 195.854 120.507C193.912 123.059 190.598 121.413 189.794 120.247H189.788Z" fill="#EEAA97"/>
<path d="M199.436 182.96C199.436 182.96 199.638 184.458 199.668 184.683C199.692 184.908 201.956 184.553 201.956 184.553L202.141 182.771C202.141 182.771 199.722 182.753 199.442 182.966L199.436 182.96Z" fill="#EEAA97"/>
<path d="M199.638 184.494C199.638 184.494 198.923 185.394 198.232 185.791C197.541 186.181 196.45 186.341 196.039 186.744C195.741 187.04 194.96 188.301 197.839 188.277C200.717 188.254 202.105 188.455 202.409 187.969C202.719 187.484 201.962 184.393 201.962 184.393C201.962 184.393 201.259 184.589 199.638 184.494Z" fill="#4F6E94"/>
<path d="M183.781 182.96C183.781 182.96 183.984 184.458 184.014 184.683C184.038 184.908 186.302 184.553 186.302 184.553L186.487 182.771C186.487 182.771 184.067 182.753 183.787 182.966L183.781 182.96Z" fill="#EEAA97"/>
<path d="M183.99 184.494C183.99 184.494 183.275 185.394 182.584 185.791C181.892 186.181 179.342 186.507 178.931 186.916C178.633 187.212 178.144 188.39 182.19 188.283C185.068 188.206 186.457 188.461 186.761 187.975C187.071 187.49 186.314 184.399 186.314 184.399C186.314 184.399 185.42 184.559 183.99 184.5V184.494Z" fill="#5E7A9D"/>
<path d="M198.673 145.683C198.673 145.683 199.829 149.259 199.68 152.344C199.525 155.428 200.282 158.803 200.586 162.024C200.931 165.618 202.332 174.115 202.379 176.039C202.433 177.963 202.159 184.097 202.159 184.097L199.352 184.162C199.352 184.162 196.992 169.295 196.385 167.779C195.771 166.264 192.744 155.452 192.642 154.238C192.541 153.025 198.667 145.683 198.667 145.683H198.673Z" fill="#113B6E"/>
<path d="M187.035 145.31C187.035 145.31 185.331 154.771 185.128 156.66C184.925 158.549 184.788 165.796 184.687 166.974C184.586 168.152 184.008 182.41 183.465 184.162H186.594C186.594 184.162 189.806 173.795 189.806 168.892C189.806 163.99 191.933 158.229 193.31 154.996C194.686 151.763 197.827 151.686 198.673 145.683C198.673 145.683 188.179 143.403 187.035 145.31Z" fill="#1B4374"/>
<path d="M190.92 121.206C190.92 121.206 191.272 122.224 190.92 122.952C190.569 123.681 195.431 123.243 195.431 123.243C195.431 123.243 195.211 121.739 195.848 120.501C196.486 119.264 190.92 121.206 190.92 121.206Z" fill="#EEAA97"/>
<path d="M198.899 146.464C198.899 146.464 197.147 148.252 186.88 146.186L187.035 145.31L198.715 145.748L198.905 146.464H198.899Z" fill="#073368"/>
<path d="M190.187 123.195C190.187 123.195 188.394 123.379 187.875 123.474C187.363 123.568 183.906 122.858 183.197 122.787C182.488 122.716 179.467 120.655 179.366 120.412C179.27 120.17 177.53 115.788 177.429 114.841C177.334 113.894 175.731 114.385 175.868 115.036C176.124 116.256 176.452 119.222 176.636 120.081C176.833 121.01 177.352 123.112 177.649 123.367C177.947 123.622 180.665 125.682 183.328 126.558C185.992 127.435 188 128.719 188 128.719H201.134C201.134 128.719 206.241 121.466 206.348 120.371C206.455 119.276 202.779 112.017 202.046 111.105C201.313 110.193 200.252 111.401 200.252 111.401C200.252 111.401 202.451 117.807 202.743 118.719C203.035 119.631 200.186 123.633 199.406 123.645C198.625 123.657 196.617 123.402 195.723 123.367C194.829 123.331 193.888 122.941 193.888 122.941L190.187 123.195Z" fill="#EEAA97"/>
<path d="M184.526 128.039C184.526 128.039 186.135 129.098 186.278 130.922C186.427 132.746 187.011 135.623 187.303 136.606C187.595 137.589 187.047 144.729 186.975 145.239C186.904 145.748 197.135 146.962 198.709 145.748C198.709 145.748 199.15 139.081 199.334 137.186C199.519 135.292 200.395 130.703 200.693 130.081C200.985 129.46 204.543 124.504 204.691 123.852C204.691 123.852 202.85 120.939 201.533 120.904C201.533 120.904 199.436 123.343 198.75 123.456C198.065 123.562 193.876 122.804 193.876 122.793C193.876 122.793 193.417 123.408 190.986 122.68C190.986 122.68 188.09 123.006 187.619 123.065C187.047 123.136 183.084 122.574 183.084 122.574C183.084 122.574 181.493 125.244 181.773 126.588L184.526 128.039Z" fill="#34608C"/>
<path d="M177.524 115.409C177.524 115.409 177.167 113.722 177.596 113.236C177.84 112.958 178.436 112.23 178.49 112.123C178.543 112.017 179.181 111.655 179.181 111.478C179.181 111.3 178.561 111.087 178.019 111.584C177.477 112.082 177.143 112.188 176.922 112.135C176.708 112.082 176.398 110.294 176.368 109.856C176.344 109.411 176.172 108.245 175.892 108.328C175.611 108.411 175.623 108.92 175.623 108.92C175.623 108.92 175.302 108.032 175.081 108.21C174.867 108.381 174.89 108.813 174.89 108.813C174.89 108.813 174.485 108.316 174.378 108.677C174.271 109.038 174.378 109.364 174.378 109.364C174.378 109.364 173.961 109.133 173.931 109.702C173.901 110.264 174.05 111.916 174.348 112.508C174.646 113.1 175.76 114.64 175.892 115.244C176.023 115.847 177.518 115.415 177.518 115.415L177.524 115.409Z" fill="#EEAA97"/>
<path d="M200.61 112.449C200.61 112.449 199.388 110.406 198.971 110.229C198.554 110.045 197.97 109.944 197.457 109.577C196.945 109.21 196.265 108.908 196.301 108.79C196.337 108.665 196.945 108.719 197.588 108.997C198.238 109.275 198.518 109.139 198.583 108.997C198.643 108.849 198.238 107.825 198.041 107.582C197.845 107.339 196.45 105.948 196.683 105.741C196.915 105.533 197.821 106.297 197.964 106.457C197.964 106.457 197.243 104.953 197.523 104.876C197.803 104.805 198.327 105.338 198.327 105.338C198.327 105.338 198.268 104.053 199.662 106.137C199.662 106.137 199.37 105.445 199.799 105.675C200.228 105.906 200.645 107.203 200.776 107.86C200.913 108.517 201.521 110.608 202.04 111.111C202.558 111.614 200.604 112.455 200.604 112.455L200.61 112.449Z" fill="#EEAA97"/>
<path d="M195.848 120.501C195.848 120.501 195.205 120.56 193.834 120.087C192.464 119.619 192.362 117.239 192.064 117.523C191.462 118.097 190.89 117.701 190.664 117.363C190.664 117.363 191.331 116.487 191.021 116.067C190.712 115.646 190.205 115.338 190.205 115.338C190.205 115.338 191.17 110.726 195.55 112.828C200.681 115.291 195.842 120.501 195.842 120.501H195.848Z" fill="#DD5E5E"/>
<path d="M190.92 122.958L191.075 122.289C191.075 122.289 193.87 122.236 195.395 122.455L195.556 123.254C195.556 123.254 193.602 124.137 190.92 122.958Z" fill="#34608C"/>
<path d="M191.611 116.943C191.868 116.522 192.803 116.238 192.916 117.428C193 118.346 191.236 119.353 191.224 118.494C191.206 117.636 191.445 117.221 191.617 116.937L191.611 116.943Z" fill="#EEAA97"/>
<path d="M177.459 115.03C177.459 115.03 176.452 115.054 175.963 115.492C175.963 115.492 175.933 115.77 176.046 115.99C176.046 115.99 176.922 115.581 177.59 115.51C177.59 115.51 177.578 115.143 177.459 115.03Z" fill="#2B2B2B"/>
<path d="M176.267 115.279C176.172 115.498 176.279 115.753 176.499 115.842C176.72 115.936 176.976 115.83 177.065 115.611C177.161 115.392 177.054 115.137 176.833 115.048C176.613 114.953 176.356 115.06 176.267 115.279Z" fill="#DD5E5E"/>
<g opacity="0.3">
<path d="M60.9184 171.622H85.9761C87.6267 171.622 88.9675 172.954 88.9675 174.594V191.291C88.9675 192.931 87.6267 194.263 85.9761 194.263H60.9184C59.2678 194.263 57.927 192.931 57.927 191.291V174.594C57.927 172.954 59.2678 171.622 60.9184 171.622Z" fill="#7A93C3"/>
</g>
<g opacity="0.3">
<path d="M132.635 171.622H157.693C159.343 171.622 160.684 172.954 160.684 174.594V191.291C160.684 192.931 159.343 194.263 157.693 194.263H132.635C130.984 194.263 129.644 192.931 129.644 191.291V174.594C129.644 172.954 130.984 171.622 132.635 171.622Z" fill="#7A93C3"/>
</g>
<g opacity="0.82">
<path d="M122.69 91.9746H64.8871C61.997 91.9746 59.6491 89.6418 59.6491 86.7702V47.284C59.6491 44.4123 61.997 42.0795 64.8871 42.0795H122.69C125.58 42.0795 127.927 44.4123 127.927 47.284V86.7702C127.927 89.6418 125.58 91.9746 122.69 91.9746ZM64.8931 42.4407C62.2056 42.4407 60.0186 44.6137 60.0186 47.284V86.7702C60.0186 89.4405 62.2056 91.6134 64.8931 91.6134H122.695C125.383 91.6134 127.57 89.4405 127.57 86.7702V47.284C127.57 44.6137 125.383 42.4407 122.695 42.4407H64.8931Z" fill="#7A93C3"/>
</g>
<path d="M32.1126 217.852L32.488 217.84L30.5811 170.26H63.5761L65.483 217.852L65.8584 217.84L63.9396 169.881H30.1878L32.1126 217.852Z" fill="#1F489A"/>
<path d="M29.0198 217.852L30.9267 170.26H63.9218L62.0149 217.84L62.3903 217.852L64.315 169.881H30.5632L28.6385 217.84L29.0198 217.852Z" fill="#1F489A"/>
<path d="M62.1996 202.375H28.8291L30.7479 154.599H64.1184L62.1996 202.375Z" fill="#1F489A"/>
<path d="M33.2388 202.375H66.6152L64.6964 154.599H31.326L33.2388 202.375Z" fill="#5C7AB5"/>
<path d="M61.2342 183.884H59.5598V196.566H61.2342V183.884Z" fill="#EBEEF6"/>
<path d="M57.921 185.305H56.2466V196.567H57.921V185.305Z" fill="#EBEEF6"/>
<path d="M54.3218 187.152H52.6473V196.567H54.3218V187.152Z" fill="#EBEEF6"/>
<path d="M50.6272 189.485H48.9527V196.567H50.6272V189.485Z" fill="#EBEEF6"/>
<path d="M38.9416 187.981L38.5781 187.851L41.7423 179.035L48.6011 177.235L51.0682 167.554L56.3598 165.233L57.5456 157.714L57.927 157.773L56.7054 165.5L51.3959 167.833L48.917 177.549L42.0343 179.355L38.9416 187.981Z" fill="#EBEEF6"/>
<path d="M49.5546 176.743C49.9121 177.182 49.8466 177.827 49.4116 178.182C48.9706 178.537 48.3211 178.472 47.9635 178.034C47.606 177.596 47.6715 176.951 48.1065 176.595C48.5475 176.24 49.197 176.305 49.5546 176.738V176.743Z" fill="#5C7AB5"/>
<path d="M49.5307 178.33C49.0063 178.757 48.2376 178.68 47.8086 178.159C47.3795 177.638 47.457 176.874 47.9814 176.447C48.5058 176.021 49.2745 176.104 49.7036 176.619C50.1326 177.14 50.0551 177.904 49.5307 178.33ZM48.2317 176.743C47.8741 177.034 47.8205 177.561 48.1125 177.916C48.4045 178.271 48.9348 178.324 49.2864 178.034C49.644 177.744 49.6976 177.217 49.4056 176.868C49.1136 176.513 48.5833 176.459 48.2257 176.749L48.2317 176.743Z" fill="#EBEEF6"/>
<path d="M52.0514 167.104C52.4089 167.542 52.3434 168.188 51.9084 168.543C51.4674 168.898 50.8179 168.839 50.4603 168.401C50.1028 167.963 50.1684 167.317 50.6034 166.962C51.0443 166.607 51.6939 166.672 52.0514 167.104Z" fill="#5C7AB5"/>
<path d="M52.0335 168.691C51.5091 169.117 50.7404 169.04 50.3114 168.519C49.8823 167.998 49.9598 167.235 50.4842 166.808C51.0086 166.382 51.7773 166.459 52.2063 166.98C52.6354 167.501 52.5579 168.265 52.0335 168.691ZM50.7285 167.11C50.371 167.4 50.3173 167.927 50.6093 168.277C50.9013 168.632 51.4317 168.685 51.7832 168.395C52.1408 168.105 52.1944 167.578 51.9024 167.223C51.6104 166.867 51.0801 166.814 50.7225 167.104L50.7285 167.11Z" fill="#EBEEF6"/>
<path d="M57.2655 164.718C57.6231 165.156 57.5575 165.802 57.1225 166.157C56.6816 166.512 56.032 166.453 55.6745 166.015C55.3169 165.577 55.3825 164.931 55.8175 164.576C56.2585 164.221 56.908 164.286 57.2655 164.724V164.718Z" fill="#5C7AB5"/>
<path d="M57.2417 166.305C56.7173 166.731 55.9486 166.654 55.5195 166.133C55.0905 165.612 55.168 164.848 55.6924 164.422C56.2168 163.996 56.9855 164.073 57.4145 164.594C57.8436 165.115 57.7661 165.879 57.2417 166.305ZM55.9367 164.724C55.5791 165.014 55.5255 165.541 55.8175 165.891C56.1095 166.246 56.6398 166.299 56.9974 166.009C57.3549 165.719 57.4086 165.192 57.1166 164.843C56.8246 164.487 56.2942 164.434 55.9426 164.724H55.9367Z" fill="#EBEEF6"/>
<path d="M42.7256 178.632C43.0831 179.07 43.0175 179.716 42.5825 180.071C42.1416 180.426 41.492 180.361 41.1345 179.929C40.777 179.491 40.8425 178.845 41.2775 178.49C41.7185 178.135 42.368 178.2 42.7256 178.632Z" fill="#5C7AB5"/>
<path d="M42.7017 180.225C42.1773 180.651 41.4086 180.574 40.9796 180.053C40.5505 179.532 40.628 178.768 41.1524 178.342C41.6768 177.916 42.4455 177.999 42.8745 178.514C43.3036 179.035 43.2261 179.799 42.7017 180.225ZM41.3967 178.638C41.0391 178.928 40.9855 179.455 41.2775 179.805C41.5695 180.16 42.0999 180.213 42.4514 179.923C42.809 179.633 42.8626 179.106 42.5706 178.757C42.2786 178.401 41.7483 178.348 41.3967 178.638Z" fill="#EBEEF6"/>
<path d="M150.369 57.6159H143.904C142.491 57.6159 141.335 56.4731 141.335 55.064V48.6398C141.335 47.2366 142.485 46.088 143.904 46.088H150.369C151.781 46.088 152.937 47.2307 152.937 48.6398V55.064C152.937 56.4672 151.787 57.6159 150.369 57.6159ZM143.904 46.5735C142.754 46.5735 141.818 47.503 141.818 48.6458V55.0699C141.818 56.2126 142.754 57.1422 143.904 57.1422H150.369C151.519 57.1422 152.455 56.2126 152.455 55.0699V48.6458C152.455 47.503 151.519 46.5735 150.369 46.5735H143.904Z" fill="#9EB0D3"/>
<path d="M150.369 72.9035H143.904C142.491 72.9035 141.335 71.7608 141.335 70.3516V63.9275C141.335 62.5243 142.485 61.3756 143.904 61.3756H150.369C151.781 61.3756 152.937 62.5183 152.937 63.9275V70.3516C152.937 71.7549 151.787 72.9035 150.369 72.9035ZM143.904 61.8611C142.754 61.8611 141.818 62.7907 141.818 63.9334V70.3575C141.818 71.5003 142.754 72.4298 143.904 72.4298H150.369C151.519 72.4298 152.455 71.5003 152.455 70.3575V63.9334C152.455 62.7907 151.519 61.8611 150.369 61.8611H143.904Z" fill="#9EB0D3"/>
<path d="M150.369 76.9119H143.904C142.62 76.9119 141.58 77.9458 141.58 79.2211V85.6452C141.58 86.9205 142.62 87.9543 143.904 87.9543H150.369C151.653 87.9543 152.693 86.9205 152.693 85.6452V79.2211C152.693 77.9458 151.653 76.9119 150.369 76.9119Z" fill="#9EB0D3"/>
<path d="M146.788 84.8695L143.981 82.4361C143.749 82.2348 143.725 81.8914 143.927 81.6604C144.13 81.4295 144.476 81.4058 144.708 81.6072L146.692 83.3301L149.523 80.1921C149.726 79.9671 150.077 79.9493 150.304 80.1506C150.53 80.3519 150.548 80.7013 150.345 80.9263L146.782 84.8755L146.788 84.8695Z" fill="#FDF5F5"/>
<path d="M45.3118 166.915H36.4865C36.0784 166.915 35.7476 167.244 35.7476 167.649V168.3C35.7476 168.706 36.0784 169.035 36.4865 169.035H45.3118C45.7199 169.035 46.0507 168.706 46.0507 168.3V167.649C46.0507 167.244 45.7199 166.915 45.3118 166.915Z" fill="#9EB0D3"/>
<path d="M36.4865 163.208H45.3118C45.717 163.208 46.0507 163.54 46.0507 163.943V164.594C46.0507 164.996 45.717 165.328 45.3118 165.328H36.4865C36.0813 165.328 35.7476 164.996 35.7476 164.594V163.943C35.7476 163.54 36.0813 163.208 36.4865 163.208Z" fill="#9EB0D3"/>
<path d="M16.9826 209.693C16.9826 209.693 17.2687 210.362 17.8109 211.067C18.2042 211.582 19.4377 213.684 19.98 213.832C20.5223 213.98 22.1968 214.27 22.3457 215.205C22.4947 216.135 22.5662 216.798 20.9156 216.869C19.2649 216.94 18.1804 217.041 17.3938 215.892C16.6072 214.744 15.3499 213.909 15.3499 213.909V216.911H14.7063C14.7063 216.911 14.4083 213.784 14.2355 213.565C14.0627 213.346 13.6217 210.948 15.1472 209.699C16.6728 208.45 16.9826 209.699 16.9826 209.699V209.693Z" fill="#083380"/>
<path d="M19.9741 213.832C19.9741 213.832 18.4962 214.199 17.9301 213.832C17.364 213.465 15.4392 210.226 14.7957 210.031C14.7957 210.031 15.4154 208.781 16.9767 209.687C16.9767 209.687 19.551 213.287 19.9681 213.826L19.9741 213.832Z" fill="#EEAA97"/>
<path d="M34.4068 158.436C34.4068 158.436 35.4317 158.632 35.7833 158.152C36.0813 157.743 36.7606 157.43 36.9751 157.335C37.2552 157.205 37.9643 156.488 38.1371 156.838C38.304 157.187 37.0228 158.075 36.7904 158.312C36.558 158.549 38.0477 158.655 38.304 158.892C38.5602 159.123 38.2444 161.568 37.2313 161.379C36.2183 161.189 35.2589 160.319 35.0742 160.319C34.8895 160.319 34.3293 160.212 34.3293 160.212L34.4127 158.436H34.4068Z" fill="#EEAA97"/>
<path d="M38.0775 158.791C38.0775 158.791 41.1464 159.579 41.3073 159.804C41.4682 160.029 41.4146 160.189 41.1226 160.13C40.8306 160.07 38.1371 159.455 38.1371 159.455C38.1371 159.455 41.6112 160.994 41.784 161.148C41.8853 161.237 41.8019 161.556 41.641 161.539C41.4801 161.521 37.9524 160.189 37.9524 160.189C37.9524 160.189 41.1941 161.633 41.2954 161.799C41.3848 161.947 41.2358 162.226 40.9855 162.137C40.7352 162.048 37.6544 160.876 37.6544 160.876C37.6544 160.876 39.9487 162.072 39.9487 162.267C39.9487 162.385 39.8891 162.67 39.311 162.338C38.7271 162.012 37.2731 161.385 37.2731 161.385L38.0716 158.791H38.0775Z" fill="#EEAA97"/>
<path d="M8.71747 211.641C8.71747 211.641 10.3681 214.08 11.0355 214.667C11.0355 214.667 12.5134 215.205 12.6623 216.236C12.8113 217.266 12.7875 217.953 11.0355 218C9.28358 218.047 8.13945 217.734 7.81766 216.686C7.49588 215.632 6.79867 214.915 6.79867 214.915V217.118H6.40538C6.40538 217.118 6.30407 214.986 6.28024 214.595C6.2564 214.205 5.99421 212.701 6.82847 212.032C7.66273 211.363 8.71747 211.647 8.71747 211.647V211.641Z" fill="#083380"/>
<path d="M7.6091 164.612C7.6091 164.612 5.52345 167.306 4.95734 170.503C4.39123 173.7 5.29104 184.423 5.26721 186.004C5.24337 187.585 3.76554 191.51 4.05753 194.488C4.35548 197.461 5.51749 212.269 5.51749 212.269L8.71152 211.641C8.71152 211.641 8.52679 196.543 8.71152 195.294C8.89625 194.044 9.26571 189.491 9.34317 188.976C9.41468 188.461 14.0389 174.961 14.0389 172.652C14.0389 170.343 12.6325 160.846 7.6091 164.606V164.612Z" fill="#002F8C"/>
<path d="M18.0791 165.666C18.0791 165.666 21.5055 178.656 21.9107 180.456C22.3159 182.256 22.9059 183.742 22.9059 184.506C22.9059 186.276 22.2444 189.124 22.2444 189.124L17.8944 209.794H13.7528C13.7528 209.794 16.059 197.39 16.1245 194.968C16.1841 192.534 18.0672 189.088 17.6977 188.058C17.3282 187.028 11.7447 175.169 11.7447 175.169C11.7447 175.169 7.51971 161.894 18.0791 165.666Z" fill="#002F8C"/>
<path d="M11.0355 214.661C11.0355 214.661 9.34317 215.602 8.25863 214.394C7.34094 213.376 6.82847 212.02 6.82847 212.02L8.71747 211.635L11.0355 214.661Z" fill="#EEAA97"/>
<path d="M16.6668 143.587C16.6668 143.587 18.0791 143.717 19.1457 144.854C20.2124 145.991 21.2135 147.802 21.4936 148.406C21.7737 149.01 25.6887 154.629 25.8973 154.753C26.0999 154.878 28.0723 155.535 29.3774 155.967C31.3915 156.642 35.4258 158.099 35.4258 158.099L34.6213 160.621C34.6213 160.621 27.0295 158.152 25.1286 157.69C22.8046 157.122 17.4534 150.301 17.4534 150.301C17.4534 150.301 13.4668 145.653 16.6668 143.587Z" fill="#1A4498"/>
<path d="M14.1998 142.604C14.1998 142.604 16.0292 143.462 16.6668 143.587C17.3044 143.711 19.7655 146.896 20.2005 148.057C20.6295 149.217 20.2005 150.958 19.3126 153.007C18.4247 155.049 19.2649 155.736 18.8538 157.779C18.4485 159.822 18.5796 167.471 18.6571 168.608C18.7346 169.745 6.76292 171.468 4.40315 169.396C4.40315 169.396 6.00017 162.504 7.89513 160.532C8.3063 160.106 8.25863 157.27 7.98452 156.565C7.70444 155.861 4.55213 150.579 4.55213 150.579C4.55213 150.579 4.31973 145.227 5.69626 144.167C6.88806 143.243 10.1476 142.918 10.7316 142.716C11.3156 142.515 13.0139 142.426 14.2117 142.604H14.1998Z" fill="#E78A71"/>
<path d="M15.0757 140.508C15.0757 140.508 15.0221 141.011 14.9566 141.686C14.9327 141.953 14.9029 142.249 14.8791 142.551C14.8076 143.456 14.748 144.427 14.7837 144.931C14.7837 144.931 12.8828 146.825 10.7197 142.722C10.7197 142.722 11.6314 141.029 10.9461 138.726C10.2609 136.422 15.0757 140.508 15.0757 140.508Z" fill="#EEAA97"/>
<path d="M20.3971 153.759C20.3971 153.759 20.856 150.733 20.3673 148.898C20.3673 148.898 20.3673 150.479 19.4973 152.723L20.3971 153.759Z" fill="#002F8C"/>
<path d="M9.2657 143.006C9.2657 143.006 10.5707 146.843 14.164 146.559C17.7573 146.275 15.8683 143.32 15.8683 143.32C15.8683 143.32 14.9744 142.811 14.7242 142.764C14.4739 142.716 10.7555 142.669 10.7555 142.669L9.27166 143.006H9.2657Z" fill="#EEAA97"/>
<path d="M15.8623 143.326C15.8623 143.326 17.7454 148.495 17.7454 153.765C17.7454 159.034 17.8943 167.614 18.5558 170.325C19.2113 173.037 21.0824 181.415 21.0824 181.415L22.5483 180.663C22.5483 180.663 19.0266 167.288 18.7584 166.323C18.4903 165.358 18.961 155.168 19.2113 154.315C19.4616 153.463 20.5401 149.667 20.3733 148.613C20.1647 147.287 18.9133 145.321 16.8932 143.628L15.8683 143.326H15.8623Z" fill="#1A4498"/>
<path d="M9.97482 142.847C9.97482 142.847 11.1428 146.565 11.7327 151.325C12.3227 156.086 9.91524 178.194 8.30034 183.209L2.03742 182.202C2.03742 182.202 3.38416 166.577 5.21358 163.735C7.04299 160.893 7.62698 158.377 5.64858 152.438C3.67615 146.506 6.51264 143.563 6.51264 143.563C6.51264 143.563 9.42064 142.9 9.96887 142.835L9.97482 142.847Z" fill="#1A4498"/>
<path d="M16.7264 158.614L9.13461 171.681L0.696648 166.844L7.95472 153.587L16.7264 158.614Z" fill="#E47E7E"/>
<path d="M15.8147 159.064L9.06906 170.669L1.57262 166.37L8.02623 154.599L15.8147 159.064Z" fill="#F4C8BC"/>
<path d="M13.3238 158.022L13.8005 157.211L10.7674 155.47L10.1774 156.216L13.3238 158.022Z" fill="#E47E7E"/>
<path d="M12.9663 167.294C12.9663 167.294 12.6206 167.294 12.4717 167.223C12.4717 167.223 12.2035 167.069 12.0128 166.974C11.9532 166.944 11.8936 166.921 11.8579 166.903C11.7029 166.85 11.3454 166.779 11.0117 166.548C10.678 166.317 9.48619 164.949 9.48619 164.949L10.0463 164.102L10.4575 163.232C10.4575 163.232 12.9543 163.392 13.294 163.57C13.3298 163.587 13.3595 163.605 13.3893 163.623C13.6635 163.8 13.7886 164.049 13.9197 164.162C13.9674 164.203 14.4203 164.641 14.4024 164.825C14.3785 165.085 14.2594 165.251 14.1044 165.34C14.1044 165.34 14.0389 165.843 13.7886 166.08C13.7886 166.08 13.7469 166.548 13.3476 166.755C13.3476 166.755 13.2463 167.223 12.9722 167.294H12.9663Z" fill="#EEAA97"/>
<path d="M7.81767 143.587C7.81767 143.587 5.51153 142.929 4.18863 145.458C2.86573 147.98 2.87169 149.058 2.69887 150.295C2.53202 151.461 1.78119 154.635 1.70372 154.967C1.62625 155.292 -0.078024 159.212 0.702606 160.574C1.4892 161.947 9.46831 165.997 9.42064 166.299C9.36701 166.601 10.8031 163.238 10.8031 163.238C10.8031 163.238 7.57335 161.45 7.04299 160.899C6.1849 160.005 4.37336 159.04 4.74282 157.933C5.17782 156.63 6.49476 152.231 6.79867 151.586C7.10258 150.94 9.7603 144.41 7.81767 143.587Z" fill="#1A4498"/>
<path d="M15.3618 130.567C15.3618 130.567 19.4675 131.852 17.2389 138.886C15.0102 145.925 9.40276 138.068 9.99271 133.782C10.5767 129.495 15.3677 130.567 15.3677 130.567H15.3618Z" fill="#EEAA97"/>
<path d="M17.656 134.67C17.656 134.67 15.618 136.659 12.2035 136.908C12.2035 136.908 10.8925 138.436 10.7912 139.034C10.7912 139.034 7.74616 133.876 11.4884 130.78C15.2307 127.689 19.0325 133.391 17.656 134.664V134.67Z" fill="#002D7C"/>
<path d="M12.2452 137.05C12.2214 136.535 11.8996 135.369 11.1368 135.7C10.3681 136.026 11.1845 138.4 11.691 138.252C11.691 138.252 12.3108 138.264 12.2452 137.05Z" fill="#EEAA97"/>
<path d="M14.9566 141.686C14.9327 141.953 14.9029 142.249 14.8791 142.551C14.8791 142.551 13.0676 142.444 11.8579 139.768C11.9353 139.886 13.2642 141.822 14.9566 141.686Z" fill="#E06746"/>
<path d="M12.0545 125.185C11.2441 125.185 10.4754 124.942 9.8616 124.492C9.1644 123.983 8.74727 123.266 8.69364 122.473C8.46124 120.922 7.85342 119.353 7.36478 118.275C5.3268 116.895 4.11712 114.628 4.11712 112.182C4.11712 108.121 7.44225 104.811 11.5361 104.811C15.6299 104.811 18.9551 108.115 18.9551 112.182C18.9551 114.397 17.9718 116.463 16.2556 117.866C15.8206 119.4 15.5882 120.785 15.5823 121.999C15.6895 123.616 14.2355 125.037 12.3465 125.167C12.2512 125.173 12.1558 125.179 12.0664 125.179L12.0545 125.185ZM11.5301 105.421C7.77595 105.421 4.71898 108.458 4.71898 112.188C4.71898 114.367 5.76181 116.505 7.8415 117.878C8.48507 119.293 9.0631 120.862 9.28954 122.402V122.426C9.33721 123.041 9.66496 123.604 10.2191 124.012C10.7912 124.427 11.5242 124.628 12.2929 124.575C13.8541 124.468 15.0519 123.331 14.9625 122.035V122.023V122.011C14.9744 120.507 15.2962 118.956 15.7134 117.523C17.4832 116.102 18.3413 114.184 18.3413 112.188C18.3413 108.458 15.2843 105.421 11.5301 105.421Z" fill="#806C35"/>
<path d="M10.4933 122.787L8.91412 114.847L10.7018 116.102L11.6553 114.876L12.6385 115.889L14.1044 114.444L13.7648 122.538L13.1569 122.514L13.437 115.948L12.6266 116.742L11.7029 115.794L10.827 116.931L9.80202 116.215L11.0892 122.668L10.4933 122.787Z" fill="#806C35"/>
<path d="M14.9149 124.259L9.66554 124.619L9.81168 126.722L15.061 126.362L14.9149 124.259Z" fill="#9EB0D3"/>
<path d="M15.5868 122.064L8.64919 122.54L8.8844 125.925L15.8221 125.449L15.5868 122.064Z" fill="#9EB0D3"/>
<path d="M185.396 215.324L176.392 187.857H205.585L214.5 215.063L213.696 215.324L204.972 188.704H177.566L186.201 215.063L185.396 215.324Z" fill="#8097C6"/>
<path d="M168.151 215.324L167.34 215.063L176.255 187.857H205.448L196.45 215.324L195.64 215.063L204.28 188.704H176.875L168.151 215.324Z" fill="#8097C6"/>
<path d="M207.981 197.005H173.973V196.158H207.522L207.981 197.005Z" fill="#8097C6"/>
<path d="M210.978 205.323H170.844V206.164H210.978V205.323Z" fill="#8097C6"/>
<path d="M151.031 145.31H88.9019C86.7397 145.31 84.9869 147.051 84.9869 149.2V209.515C84.9869 211.664 86.7397 213.405 88.9019 213.405H151.031C153.193 213.405 154.946 211.664 154.946 209.515V149.2C154.946 147.051 153.193 145.31 151.031 145.31Z" fill="#9EB0D3"/>
<path d="M150.518 101.631H101.66C100.459 101.631 99.4851 102.599 99.4851 103.793V105.693C99.4851 106.887 100.459 107.854 101.66 107.854H150.518C151.719 107.854 152.693 106.887 152.693 105.693V103.793C152.693 102.599 151.719 101.631 150.518 101.631Z" fill="#9EB0D3"/>
<path d="M150.524 118.986H101.66C100.296 118.986 99.1812 117.884 99.1812 116.522V114.622C99.1812 113.266 100.29 112.159 101.66 112.159H150.524C151.889 112.159 153.003 113.26 153.003 114.622V116.522C153.003 117.878 151.895 118.986 150.524 118.986ZM101.66 112.763C100.629 112.763 99.789 113.598 99.789 114.622V116.522C99.789 117.547 100.629 118.382 101.66 118.382H150.524C151.555 118.382 152.395 117.547 152.395 116.522V114.622C152.395 113.598 151.555 112.763 150.524 112.763H101.66Z" fill="#9EB0D3"/>
<path d="M150.524 130.65H101.66C100.296 130.65 99.1812 129.548 99.1812 128.187V126.286C99.1812 124.93 100.29 123.823 101.66 123.823H150.524C151.889 123.823 153.003 124.93 153.003 126.286V128.187C153.003 129.542 151.895 130.65 150.524 130.65ZM101.66 124.433C100.629 124.433 99.789 125.268 99.789 126.292V128.192C99.789 129.217 100.629 130.052 101.66 130.052H150.524C151.555 130.052 152.395 129.217 152.395 128.192V126.292C152.395 125.268 151.555 124.433 150.524 124.433H101.66Z" fill="#9EB0D3"/>
<path d="M93.6453 172.913H134.828C136.109 172.913 137.146 173.943 137.146 175.216V177.744C137.146 179.017 136.109 180.047 134.828 180.047H93.6393C92.3582 180.047 91.3213 179.017 91.3213 177.744V175.216C91.3213 173.943 92.3582 172.913 93.6393 172.913H93.6453Z" fill="#EBEEF6"/>
<path d="M93.6453 161.545H134.828C136.109 161.545 137.146 162.575 137.146 163.848V166.376C137.146 167.649 136.109 168.679 134.828 168.679H93.6393C92.3582 168.679 91.3213 167.649 91.3213 166.376V163.848C91.3213 162.575 92.3582 161.545 93.6393 161.545H93.6453Z" fill="#EBEEF6"/>
<path d="M92.531 204.299H101.803C102.042 204.299 102.232 204.489 102.232 204.725V205.916C102.232 206.152 102.042 206.342 101.803 206.342H92.531C92.2926 206.342 92.1019 206.152 92.1019 205.916V204.725C92.1019 204.489 92.2926 204.299 92.531 204.299Z" fill="#EBEEF6"/>
<path d="M104.634 204.299H113.906C114.144 204.299 114.335 204.489 114.335 204.725V205.916C114.335 206.152 114.144 206.342 113.906 206.342H104.634C104.395 206.342 104.205 206.152 104.205 205.916V204.725C104.205 204.489 104.395 204.299 104.634 204.299Z" fill="#EBEEF6"/>
<path d="M116.903 204.299H126.176C126.414 204.299 126.605 204.489 126.605 204.725V205.916C126.605 206.152 126.414 206.342 126.176 206.342H116.903C116.665 206.342 116.474 206.152 116.474 205.916V204.725C116.474 204.489 116.665 204.299 116.903 204.299Z" fill="#5C7AB5"/>
<g opacity="0.82">
<path d="M93.2103 15.6725H35.4138C32.6197 15.6725 30.3546 17.9231 30.3546 20.6993V60.1855C30.3546 62.9617 32.6197 65.2123 35.4138 65.2123H93.2103C96.0044 65.2123 98.2695 62.9617 98.2695 60.1855V20.6993C98.2695 17.9231 96.0044 15.6725 93.2103 15.6725Z" fill="#7A93C3"/>
</g>
<path d="M89.6945 22.2151H60.6741C59.9171 22.2151 59.3035 22.8248 59.3035 23.5769V25.2406C59.3035 25.9927 59.9171 26.6024 60.6741 26.6024H89.6945C90.4514 26.6024 91.065 25.9927 91.065 25.2406V23.5769C91.065 22.8248 90.4514 22.2151 89.6945 22.2151Z" fill="#EBEEF6"/>
<path d="M89.6945 30.7352H60.6741C59.9171 30.7352 59.3035 31.3449 59.3035 32.097V34.3351C59.3035 35.0871 59.9171 35.6968 60.6741 35.6968H89.6945C90.4514 35.6968 91.065 35.0871 91.065 34.3351V32.097C91.065 31.3449 90.4514 30.7352 89.6945 30.7352Z" fill="#EBEEF6"/>
<path d="M42.3978 37.6452C43.2023 37.9176 44.0604 38.0656 44.9542 38.0775C47.6596 38.113 50.0849 36.8518 51.6283 34.8802C52.695 33.5125 53.3445 31.8014 53.3624 29.9363C53.3624 29.7527 53.3624 29.5692 53.3505 29.3856C53.3088 28.5567 53.1359 27.7633 52.8678 27.0173C51.7237 23.8852 48.7203 21.6293 45.1687 21.5879C43.2559 21.5642 41.4861 22.1859 40.0678 23.2457C38.0894 24.7318 36.7963 27.0765 36.7606 29.7291C36.7129 33.3941 39.0786 36.538 42.3978 37.6512V37.6452ZM38.8403 29.7527C38.8641 27.7752 39.8235 26.0285 41.2894 24.9154C42.3561 24.1042 43.6969 23.6306 45.1449 23.6483C47.8086 23.6839 50.0551 25.3713 50.9192 27.7219C51.1218 28.2844 51.2469 28.8824 51.2827 29.4981C51.2887 29.6343 51.2946 29.7705 51.2887 29.9126C51.2708 31.3099 50.7881 32.5947 49.9836 33.6191C48.8276 35.0993 47.0101 36.0407 44.984 36.017C44.3106 36.0111 43.6671 35.8927 43.0652 35.6914C40.5803 34.8565 38.8045 32.5 38.8343 29.7527H38.8403Z" fill="#EBEEF6"/>
<path d="M49.9836 33.6186L51.6283 34.8857C50.0849 36.8573 47.6656 38.1185 44.9542 38.0829C44.0604 38.0711 43.2023 37.9172 42.3978 37.6507L43.0652 35.6968C43.6671 35.8982 44.3106 36.0106 44.984 36.0225C47.016 36.0462 48.8276 35.1048 49.9836 33.6245V33.6186Z" fill="#EBEEF6"/>
<path d="M51.2767 29.4918L53.3505 29.3793C53.3624 29.5628 53.3624 29.7464 53.3624 29.9299C53.3385 31.795 52.695 33.5061 51.6283 34.8739L49.9836 33.6068C50.7821 32.5825 51.2708 31.2977 51.2886 29.9003C51.2886 29.7582 51.2886 29.6221 51.2827 29.4859L51.2767 29.4918Z" fill="#EBEEF6"/>
<path d="M51.2767 29.4977C51.241 28.876 51.1158 28.2839 50.9132 27.7215L52.8678 27.011C53.1419 27.757 53.3088 28.5563 53.3505 29.3793L51.2767 29.4918V29.4977Z" fill="#EBEEF6"/>
<path d="M40.0678 23.2394C41.4861 22.1795 43.2559 21.5578 45.1687 21.5815C48.7203 21.6289 51.7237 23.8788 52.8678 27.0109L50.9132 27.7215C50.0551 25.3709 47.8026 23.6775 45.1389 23.6479C43.6909 23.6301 42.3501 24.1038 41.2835 24.915L40.0678 23.2394Z" fill="#EBEEF6"/>
<g opacity="0.66">
<path d="M36.7606 57.5744L47.9218 48.9477L57.6171 54.1758L71.1441 43.992L80.8334 49.4332L91.0651 42.5177V57.5744H36.7606Z" fill="#EBEEF6"/>
</g>
</g>
<defs>
<clipPath id="clip0_5_488">
<rect width="214" height="218" fill="white" transform="translate(0.5)"/>
</clipPath>
</defs>
</svg>
