<svg width="32" height="32" viewBox="0 0 32 32" fill="none" xmlns="http://www.w3.org/2000/svg">
<path d="M17.3333 29.3334C16.2424 29.3334 15.2003 28.8784 13.1159 27.9686C10.6831 26.9067 8.82072 26.0938 7.52864 25.3334H2.66667M17.3333 29.3334C18.4243 29.3334 19.4664 28.8784 21.5508 27.9686C26.7392 25.7039 29.3333 24.5715 29.3333 22.6667V8.66669M17.3333 29.3334V14.6667M5.33333 8.66669V12.6667" stroke="#666666" stroke-width="1.5" stroke-linecap="round" stroke-linejoin="round"/>
<path d="M12.4346 12.9219L8.53963 11.0372C6.40209 10.0028 5.33333 9.48566 5.33333 8.66669C5.33333 7.84771 6.40209 7.33055 8.53963 6.29622L12.4346 4.41151C14.8384 3.2483 16.0404 2.66669 17.3333 2.66669C18.6263 2.66669 19.8283 3.24829 22.2321 4.41151L26.1271 6.29622C28.2645 7.33055 29.3333 7.84771 29.3333 8.66669C29.3333 9.48566 28.2645 10.0028 26.1271 11.0372L22.2321 12.9219C19.8283 14.0851 18.6263 14.6667 17.3333 14.6667C16.0404 14.6667 14.8384 14.0851 12.4346 12.9219Z" stroke="#666666" stroke-width="1.5" stroke-linecap="round" stroke-linejoin="round"/>
<path d="M24.1821 5.35419L10.4896 11.9798" stroke="#666666" stroke-width="1.5" stroke-linecap="round" stroke-linejoin="round"/>
<path d="M2.66667 17.3333H6.66667" stroke="#666666" stroke-width="1.5" stroke-linecap="round" stroke-linejoin="round"/>
<path d="M2.66667 21.3333H6.66667" stroke="#666666" stroke-width="1.5" stroke-linecap="round" stroke-linejoin="round"/>
</svg>
