<svg width="33" height="32" viewBox="0 0 33 32" fill="none" xmlns="http://www.w3.org/2000/svg">
<path d="M12.4992 29.3333L12.1651 24.6548C11.9854 22.1395 13.9776 20 16.4992 20C19.0209 20 21.0131 22.1395 20.8335 24.6548L20.4992 29.3333" stroke="#646464" stroke-width="1.5"/>
<path d="M3.63536 17.618C3.16467 14.555 2.92932 13.0235 3.5084 11.6659C4.08747 10.3082 5.37221 9.37926 7.94169 7.52143L9.86149 6.13335C13.0579 3.82225 14.6561 2.66669 16.5001 2.66669C18.3443 2.66669 19.9424 3.82225 23.1388 6.13335L25.0587 7.52143C27.6281 9.37926 28.9129 10.3082 29.492 11.6659C30.0711 13.0235 29.8357 14.555 29.3649 17.618L28.9636 20.2299C28.2964 24.5719 27.9627 26.743 26.4055 28.0382C24.8483 29.3334 22.5717 29.3334 18.0185 29.3334H14.9817C10.4286 29.3334 8.15205 29.3334 6.59484 28.0382C5.03763 26.743 4.704 24.5719 4.03675 20.2299L3.63536 17.618Z" stroke="#646464" stroke-width="1.5" stroke-linejoin="round"/>
</svg>
