<svg width="32" height="32" viewBox="0 0 32 32" fill="none" xmlns="http://www.w3.org/2000/svg">
<path d="M3.33334 16C3.33334 10.0289 3.33334 7.0433 5.18832 5.1883C7.04332 3.33331 10.0289 3.33331 16 3.33331C21.9711 3.33331 24.9567 3.33331 26.8117 5.1883C28.6667 7.0433 28.6667 10.0289 28.6667 16C28.6667 21.971 28.6667 24.9566 26.8117 26.8117C24.9567 28.6666 21.9711 28.6666 16 28.6666C10.0289 28.6666 7.04332 28.6666 5.18832 26.8117C3.33334 24.9566 3.33334 21.971 3.33334 16Z" stroke="#646464" stroke-width="1.5"/>
<path d="M14.6667 9.33331H22.6667" stroke="#646464" stroke-width="1.5" stroke-linecap="round"/>
<path d="M9.33334 9.33331H10.6667" stroke="#646464" stroke-width="1.5" stroke-linecap="round"/>
<path d="M9.33334 16H10.6667" stroke="#646464" stroke-width="1.5" stroke-linecap="round"/>
<path d="M9.33334 22.6667H10.6667" stroke="#646464" stroke-width="1.5" stroke-linecap="round"/>
<path d="M14.6667 16H22.6667" stroke="#646464" stroke-width="1.5" stroke-linecap="round"/>
<path d="M14.6667 22.6667H22.6667" stroke="#646464" stroke-width="1.5" stroke-linecap="round"/>
</svg>
