<svg width="32" height="32" viewBox="0 0 32 32" fill="none" xmlns="http://www.w3.org/2000/svg">
<path d="M27.6987 24C28.6977 24 29.4924 23.3713 30.206 22.4921C31.6665 20.6925 29.2684 19.2544 28.3539 18.5501C27.424 17.8341 26.3859 17.4285 25.3333 17.3333M24 14.6667C25.8409 14.6667 27.3333 13.1743 27.3333 11.3333C27.3333 9.49239 25.8409 8 24 8" stroke="#646464" stroke-width="1.5" stroke-linecap="round"/>
<path d="M4.30128 24C3.30221 24 2.50756 23.3713 1.79407 22.4921C0.333452 20.6925 2.73156 19.2544 3.6462 18.5501C4.57596 17.8341 5.61411 17.4285 6.66667 17.3333M7.33333 14.6667C5.49239 14.6667 4 13.1743 4 11.3333C4 9.49239 5.49239 8 7.33333 8" stroke="#646464" stroke-width="1.5" stroke-linecap="round"/>
<path d="M10.7784 20.1483C9.41604 20.9907 5.84399 22.7108 8.0196 24.8632C9.08237 25.9147 10.266 26.6667 11.7542 26.6667H20.2459C21.734 26.6667 22.9176 25.9147 23.9804 24.8632C26.156 22.7108 22.584 20.9907 21.2216 20.1483C18.0268 18.1728 13.9732 18.1728 10.7784 20.1483Z" stroke="#646464" stroke-width="1.5" stroke-linecap="round" stroke-linejoin="round"/>
<path d="M20.6667 9.99998C20.6667 12.5773 18.5773 14.6666 16 14.6666C13.4227 14.6666 11.3333 12.5773 11.3333 9.99998C11.3333 7.42265 13.4227 5.33331 16 5.33331C18.5773 5.33331 20.6667 7.42265 20.6667 9.99998Z" stroke="#646464" stroke-width="1.5"/>
</svg>
